# Building Generator
# Sides: 8, Height: 6, Base Radius: 1, Top Radius: 0.8

# Vertices
v 0.000000 0.000000 0.000000
v 0.000000 6.000000 0.000000
v 1.000000 0.000000 0.000000
v 0.800000 6.000000 0.000000
v 0.707107 0.000000 0.707107
v 0.565685 6.000000 0.565685
v 0.000000 0.000000 1.000000
v 0.000000 6.000000 0.800000
v -0.707107 0.000000 0.707107
v -0.565685 6.000000 0.565685
v -1.000000 0.000000 0.000000
v -0.800000 6.000000 0.000000
v -0.707107 0.000000 -0.707107
v -0.565685 6.000000 -0.565685
v -0.000000 0.000000 -1.000000
v -0.000000 6.000000 -0.800000
v 0.707107 0.000000 -0.707107
v 0.565685 6.000000 -0.565685

# Normals
vn 0.000000 -1.000000 0.000000
vn 0.000000 1.000000 0.000000
vn 0.818343 -0.563514 0.112990
vn 0.793177 0.599063 -0.109515
vn 0.498760 -0.563514 0.658552
vn 0.638300 0.599063 0.483422
vn -0.112990 -0.563514 0.818343
vn 0.109515 0.599063 0.793177
vn -0.658552 -0.563514 0.498760
vn -0.483422 0.599063 0.638300
vn -0.818343 -0.563514 -0.112990
vn -0.793177 0.599063 0.109515
vn -0.498760 -0.563514 -0.658552
vn -0.638300 0.599063 -0.483422
vn 0.112990 -0.563514 -0.818343
vn -0.109515 0.599063 -0.793177
vn 0.658552 -0.563514 -0.498760
vn 0.483422 0.599063 -0.638300

# Faces
f 2//2 6//6 4//4
f 2//2 8//8 6//6
f 2//2 10//10 8//8
f 2//2 12//12 10//10
f 2//2 14//14 12//12
f 2//2 16//16 14//14
f 2//2 18//18 16//16
f 2//2 4//4 18//18
f 1//1 3//3 5//5
f 1//1 5//5 7//7
f 1//1 7//7 9//9
f 1//1 9//9 11//11
f 1//1 11//11 13//13
f 1//1 13//13 15//15
f 1//1 15//15 17//17
f 1//1 17//17 3//3
f 3//3 4//4 6//6
f 3//3 6//6 5//5
f 5//5 6//6 8//8
f 5//5 8//8 7//7
f 7//7 8//8 10//10
f 7//7 10//10 9//9
f 9//9 10//10 12//12
f 9//9 12//12 11//11
f 11//11 12//12 14//14
f 11//11 14//14 13//13
f 13//13 14//14 16//16
f 13//13 16//16 15//15
f 15//15 16//16 18//18
f 15//15 18//18 17//17
f 17//17 18//18 4//4
f 17//17 4//4 3//3
